Jane, a young French woman, pregnant and unmarried, takes a room in a seedy London boarding house, which is inhabited by an assortment of misfits. She considers getting an abortion, but is unhappy with this solution. She falls into a relationship with Toby, a struggling young writer who lives on the first floor. Eventually she comes to like her odd room, and makes friends with all the strange people in the house. But she still faces two problems: what to do with her baby, and what to do with Toby. From IMDb.


Director:
Bryan Forbes

Writers:
Lynne Reid Banks (novel), Bryan Forbes (written for the screen by)

Stars:
Leslie Caron, Anthony Booth, Avis Bunnage

Format                                   : AVI
Format/Info                              : Audio Video Interleave
File size                                : 1.55 GiB
Duration                                 : 2h 0mn
Overall bit rate                         : 1 841 Kbps
Writing application                      : VirtualDubMod 1.5.10.2 (build 2540/release)
Writing library                          : VirtualDubMod build 2540/release

Video
ID                                       : 0
Format                                   : MPEG-4 Visual
Format profile                           : Advanced Simple@L5
Format settings, BVOP                    : 1
Format settings, QPel                    : No
Format settings, GMC                     : No warppoints
Format settings, Matrix                  : Default (MPEG)
Codec ID                                 : XVID
Codec ID/Hint                            : XviD
Duration                                 : 2h 0mn
Bit rate                                 : 1 703 Kbps
Width                                    : 704 pixels
Height                                   : 384 pixels
Display aspect ratio                     : 1.85:1
Frame rate                               : 25.000 fps
Color space                              : YUV
Chroma subsampling                       : 4:2:0
Bit depth                                : 8 bits
Scan type                                : Progressive
Compression mode                         : Lossy
Bits/(Pixel*Frame)                       : 0.252
Stream size                              : 1.44 GiB (93%)
Writing library                          : XviD 1.2.1 (UTC 2008-12-04)

Audio
ID                                       : 1
Format                                   : MPEG Audio
Format version                           : Version 1
Format profile                           : Layer 3
Mode                                     : Joint stereo
Mode extension                           : MS Stereo
Codec ID                                 : 55
Codec ID/Hint                            : MP3
Duration                                 : 2h 0mn
Bit rate mode                            : Constant
Bit rate                                 : 128 Kbps
Channel(s)                               : 2 channels
Sampling rate                            : 48.0 KHz
Compression mode                         : Lossy
Stream size                              : 110 MiB (7%)
Alignment                                : Aligned on interleaves
Interleave, duration                     : 40 ms (1.00 video frame)
Interleave, preload duration             : 504 ms

Upped by Aw in KG. Tks!